<svg xmlns="http://www.w3.org/2000/svg" viewBox="0 0 800 500" width="800" height="500">
  <defs>
    <linearGradient id="bg11" x1="0%" y1="0%" x2="100%" y2="100%">
      <stop offset="0%" stop-color="#170b02"/>
      <stop offset="100%" stop-color="#f6bf1d"/>
    </linearGradient>
    <linearGradient id="card11" x1="0%" y1="0%" x2="100%" y2="100%">
      <stop offset="0%" stop-color="rgba(255,255,255,0.10)"/>
      <stop offset="100%" stop-color="rgba(255,255,255,0.02)"/>
    </linearGradient>
    <radialGradient id="glow11" cx="30%" cy="20%" r="60%">
      <stop offset="0%" stop-color="#f6bf1d" stop-opacity="0.55"/>
      <stop offset="100%" stop-color="#f6bf1d" stop-opacity="0"/>
    </radialGradient></defs>
  <rect width="800" height="500" fill="url(#bg11)"/>
  <rect width="800" height="500" fill="url(#glow11)"/>
  <rect x="48.0" y="48.0" width="128.0" height="404.0" rx="14" fill="url(#card11)" stroke="rgba(255,255,255,0.08)"/>
<rect x="66.0" y="78.0" width="80.0" height="12" rx="6" fill="rgba(255,255,255,0.14)"/>
<rect x="66.0" y="122.0" width="80.0" height="12" rx="6" fill="rgba(255,255,255,0.35)"/>
<rect x="66.0" y="166.0" width="80.0" height="12" rx="6" fill="rgba(255,255,255,0.14)"/>
<rect x="66.0" y="210.0" width="80.0" height="12" rx="6" fill="rgba(255,255,255,0.14)"/>
<rect x="66.0" y="254.0" width="80.0" height="12" rx="6" fill="rgba(255,255,255,0.14)"/>
<rect x="200.0" y="48.0" width="170.66666666666666" height="140.0" rx="14" fill="url(#card11)" stroke="rgba(255,255,255,0.08)"/>
<rect x="218.0" y="68.0" width="85.33333333333333" height="10" rx="5" fill="rgba(255,255,255,0.3)"/>
<rect x="218.0" y="88.0" width="59.73333333333333" height="22" rx="6" fill="#ffe066" opacity="0.85"/>
<rect x="390.66666666666663" y="48.0" width="170.66666666666666" height="140.0" rx="14" fill="url(#card11)" stroke="rgba(255,255,255,0.08)"/>
<rect x="408.66666666666663" y="68.0" width="85.33333333333333" height="10" rx="5" fill="rgba(255,255,255,0.3)"/>
<rect x="408.66666666666663" y="88.0" width="59.73333333333333" height="22" rx="6" fill="#ffe066" opacity="0.85"/>
<rect x="581.3333333333333" y="48.0" width="170.66666666666666" height="140.0" rx="14" fill="url(#card11)" stroke="rgba(255,255,255,0.08)"/>
<rect x="599.3333333333333" y="68.0" width="85.33333333333333" height="10" rx="5" fill="rgba(255,255,255,0.3)"/>
<rect x="599.3333333333333" y="88.0" width="59.73333333333333" height="22" rx="6" fill="#ffe066" opacity="0.85"/>
<rect x="200.0" y="208.0" width="552.0" height="244.0" rx="14" fill="url(#card11)" stroke="rgba(255,255,255,0.08)"/>
<rect x="230.0" y="277.0" width="70.28571428571429" height="71" rx="4" fill="#ffe066" opacity="0.4"/>
<rect x="308.2857142857143" y="299.0" width="70.28571428571429" height="49" rx="4" fill="#ffe066" opacity="0.48000000000000004"/>
<rect x="386.57142857142856" y="268.0" width="70.28571428571429" height="80" rx="4" fill="#ffe066" opacity="0.56"/>
<rect x="464.8571428571429" y="312.0" width="70.28571428571429" height="36" rx="4" fill="#ffe066" opacity="0.64"/>
<rect x="543.1428571428571" y="309.0" width="70.28571428571429" height="39" rx="4" fill="#ffe066" opacity="0.72"/>
<rect x="621.4285714285714" y="250.0" width="70.28571428571429" height="98" rx="4" fill="#ffe066" opacity="0.8"/>
<rect x="699.7142857142858" y="306.0" width="70.28571428571429" height="42" rx="4" fill="#ffe066" opacity="0.88"/>
</svg>